<svg width="677" height="835" viewBox="0 0 677 835" fill="none" xmlns="http://www.w3.org/2000/svg">
<ellipse cx="213.297" cy="196.439" rx="38.4375" ry="36.1607" fill="#FFFDFD"/>
<path d="M286.734 195.557C286.734 233.003 254.421 263.615 214.234 263.615C174.047 263.615 141.734 233.003 141.734 195.557C141.734 158.112 174.047 127.5 214.234 127.5C254.421 127.5 286.734 158.112 286.734 195.557Z" stroke="#FDF9F9" stroke-width="5"/>
<ellipse cx="461.297" cy="195.439" rx="38.4375" ry="36.1607" fill="#FFFDFD"/>
<path d="M534.734 194.557C534.734 232.003 502.421 262.615 462.234 262.615C422.047 262.615 389.734 232.003 389.734 194.557C389.734 157.112 422.047 126.5 462.234 126.5C502.421 126.5 534.734 157.112 534.734 194.557Z" stroke="#FDF9F9" stroke-width="5"/>
<path d="M232.458 383C131.818 383 50.234 304.874 50.234 208.5C50.234 112.126 131.818 34 232.458 34C272.438 34 309.412 46.3301 339.457 67.2359C369.503 46.3301 406.477 34 446.457 34C547.097 34 628.681 112.126 628.681 208.5C628.681 304.874 547.097 383 446.457 383" stroke="#FFFDFD" stroke-width="16"/>
<path d="M272.234 1C144.459 29.9798 38.234 1 38.234 1C38.234 1 112.575 73.6618 152.234 45L244.618 33.7493L340.734 59.1066C344.396 48.3838 340.734 1 272.234 1Z" fill="#FFFDFD" stroke="#FEFEFE"/>
<path d="M409.695 2C537.47 30.9798 643.695 2 643.695 2C643.695 2 569.353 74.6618 529.695 46L437.311 34.7493L341.195 60.1066C337.533 49.3838 341.195 2 409.695 2Z" fill="#FFFDFD" stroke="#FEFEFE"/>
<path d="M102.234 383C49.8207 383 -10.2377 406.844 13.234 502C31.734 577 78.6792 628.079 116.734 652C209.258 710.161 270.234 705 270.234 705" stroke="#FEFEFE" stroke-width="16"/>
<path d="M574 383C626.413 383 686.472 406.844 663 502C644.5 577 597.555 628.079 559.5 652C466.976 710.161 406 705 406 705" stroke="#FEFEFE" stroke-width="16"/>
<path d="M578 383H98L338 818L578 383Z" stroke="#FEFEFE" stroke-width="16"/>
<path d="M497.234 522H652.234" stroke="#FEFEFE" stroke-width="16"/>
<path d="M16.234 522H171.234" stroke="#FEFEFE" stroke-width="16"/>
<path d="M110.734 648L339.234 198L561.234 648" stroke="#FEFEFE" stroke-width="16"/>
<path d="M238.234 643H438.234" stroke="#FEFEFE" stroke-width="16"/>
</svg>
